<svg xmlns="http://www.w3.org/2000/svg" viewBox="0 0 64 64">
  <rect width="64" height="64" rx="12" fill="#fbfcfa"/>
  <polygon points="19.92,30.64 20.23,29.90 20.42,29.71 21.22,29.10 23.14,27.68 26.10,25.51 28.14,24.03 31.60,21.56 31.66,21.56 31.66,26.44 31.17,39.04 30.36,40.77 29.81,41.95 29.56,42.44 29.37,42.44 29.19,42.32 28.32,41.70 22.46,37.50 21.16,36.51 19.98,35.58 19.92,35.52" fill="#3d7a6f"/>
  <polygon points="32.34,21.62 32.40,21.56 32.96,21.93 34.07,22.73 35.43,23.72 40.93,27.74 42.59,28.97 43.58,29.71 43.77,29.90 44.08,30.64 44.08,35.52 43.95,35.64 41.67,37.31 36.66,40.96 34.63,42.44 34.50,42.44 34.44,42.38 34.32,42.19 34.25,42.07 33.27,39.97 33.02,39.41 32.83,38.98 32.34,26.44" fill="#7fa49e"/>
  <polygon points="8.00,38.86 8.62,38.05 15.78,32.86 18.69,30.89 19.12,30.70 19.24,30.70 19.24,35.52 19.18,35.64 19.06,35.77 12.51,40.65 9.79,42.44 9.61,42.44 9.11,41.45 8.06,39.17 8.00,38.98" fill="#5a8e86"/>
  <polygon points="44.76,30.70 44.82,30.70 44.94,30.76 45.68,31.26 46.80,32.06 55.26,38.24 55.57,38.49 55.94,38.80 56.00,38.86 56.00,38.98 55.63,39.85 54.83,41.58 54.46,42.32 54.33,42.44 54.21,42.44 53.34,41.82 52.23,41.02 45.81,36.32 44.88,35.64 44.76,35.52" fill="#9bb8b2"/>
</svg>
