<svg xmlns="http://www.w3.org/2000/svg" viewBox="0 0 512 512">
  <rect width="512" height="512" rx="96" fill="#fbfcfa"/>
  <polygon points="159.38,245.13 161.85,239.20 163.34,237.71 169.76,232.77 185.08,221.41 208.80,204.11 225.11,192.25 252.79,172.48 253.28,172.48 253.28,211.52 249.33,312.34 242.90,326.18 238.46,335.57 236.48,339.52 235.00,339.52 233.51,338.53 226.59,333.59 179.64,299.98 169.27,292.08 159.88,284.66 159.38,284.17" fill="#3d7a6f"/>
  <polygon points="258.72,172.97 259.21,172.48 263.66,175.44 272.56,181.87 283.43,189.78 327.41,221.90 340.76,231.78 348.66,237.71 350.15,239.20 352.62,245.13 352.62,284.17 351.63,285.16 333.34,298.50 293.31,327.66 277.00,339.52 276.02,339.52 275.52,339.03 274.53,337.54 274.04,336.56 266.13,319.75 264.15,315.31 262.67,311.85 258.72,211.52" fill="#7fa49e"/>
  <polygon points="64.00,310.86 68.94,304.43 126.27,262.92 149.50,247.10 152.96,245.62 153.95,245.62 153.95,284.17 153.45,285.16 152.46,286.15 100.08,325.19 78.33,339.52 76.85,339.52 72.90,331.61 64.49,313.33 64.00,311.85" fill="#5a8e86"/>
  <polygon points="358.05,245.62 358.55,245.62 359.54,246.12 365.47,250.07 374.36,256.49 442.07,305.92 444.54,307.89 447.51,310.36 448.00,310.86 448.00,311.85 445.03,318.76 438.61,332.60 435.64,338.53 434.66,339.52 433.67,339.52 426.75,334.58 417.85,328.15 366.46,290.59 359.04,285.16 358.05,284.17" fill="#9bb8b2"/>
</svg>
